<mxfile host="app.diagrams.net" modified="2020-10-10T02:26:00.910Z" agent="5.0 (Macintosh; Intel Mac OS X 10_14_5) AppleWebKit/537.36 (KHTML, like Gecko) Chrome/85.0.4183.121 Safari/537.36" etag="zRXz0LTGNuIWSqh1dodF" version="13.7.9" type="github">
  <diagram name="Page-1" id="929967ad-93f9-6ef4-fab6-5d389245f69c">
    <mxGraphModel dx="1149" dy="569" grid="1" gridSize="10" guides="1" tooltips="1" connect="1" arrows="1" fold="1" page="1" pageScale="1.5" pageWidth="1169" pageHeight="826" background="none" math="0" shadow="0">
      <root>
        <mxCell id="0" style=";html=1;" />
        <mxCell id="1" style=";html=1;" parent="0" />
        <mxCell id="FdiIMIpBdKavGemfurEI-6" value="" style="rounded=0;whiteSpace=wrap;html=1;dashed=1;shadow=0;fillColor=none;" vertex="1" parent="1">
          <mxGeometry x="460" y="340" width="1080" height="360" as="geometry" />
        </mxCell>
        <mxCell id="Vgzjhl4OV25yT5jgVJQd-2" style="edgeStyle=orthogonalEdgeStyle;rounded=0;orthogonalLoop=1;jettySize=auto;html=1;exitX=0.5;exitY=1;exitDx=0;exitDy=0;entryX=0.5;entryY=0;entryDx=0;entryDy=0;fillColor=#ffcd5a;strokeColor=#ffcd5a;strokeWidth=2;" parent="1" source="Vgzjhl4OV25yT5jgVJQd-5" target="Vgzjhl4OV25yT5jgVJQd-10" edge="1">
          <mxGeometry relative="1" as="geometry" />
        </mxCell>
        <mxCell id="Vgzjhl4OV25yT5jgVJQd-3" style="edgeStyle=orthogonalEdgeStyle;rounded=0;orthogonalLoop=1;jettySize=auto;html=1;exitX=0.5;exitY=1;exitDx=0;exitDy=0;entryX=0.5;entryY=0;entryDx=0;entryDy=0;fillColor=#ffcd5a;strokeColor=#ffcd5a;strokeWidth=2;" parent="1" source="Vgzjhl4OV25yT5jgVJQd-5" target="Vgzjhl4OV25yT5jgVJQd-24" edge="1">
          <mxGeometry relative="1" as="geometry" />
        </mxCell>
        <mxCell id="Vgzjhl4OV25yT5jgVJQd-4" style="rounded=0;orthogonalLoop=1;jettySize=auto;html=1;exitX=0;exitY=0.75;exitDx=0;exitDy=0;entryX=1;entryY=0.5;entryDx=0;entryDy=0;fillColor=#8db9ff;strokeColor=#8db9ff;strokeWidth=2;startArrow=classic;startFill=1;" parent="1" source="Vgzjhl4OV25yT5jgVJQd-5" target="Vgzjhl4OV25yT5jgVJQd-13" edge="1">
          <mxGeometry relative="1" as="geometry" />
        </mxCell>
        <mxCell id="Vgzjhl4OV25yT5jgVJQd-46" value="配置修改" style="edgeLabel;html=1;align=center;verticalAlign=middle;resizable=0;points=[];" parent="Vgzjhl4OV25yT5jgVJQd-4" vertex="1" connectable="0">
          <mxGeometry x="-0.7019" y="-2" relative="1" as="geometry">
            <mxPoint x="-33.33" as="offset" />
          </mxGeometry>
        </mxCell>
        <mxCell id="Vgzjhl4OV25yT5jgVJQd-5" value="profile-manage-service" style="rounded=1;whiteSpace=wrap;html=1;fillColor=#cce5ff;strokeColor=#36393d;" parent="1" vertex="1">
          <mxGeometry x="887.5" y="360" width="150" height="50" as="geometry" />
        </mxCell>
        <mxCell id="Vgzjhl4OV25yT5jgVJQd-6" style="edgeStyle=orthogonalEdgeStyle;rounded=0;orthogonalLoop=1;jettySize=auto;html=1;exitX=0.5;exitY=1;exitDx=0;exitDy=0;entryX=0.5;entryY=0;entryDx=0;entryDy=0;fillColor=#ffcd5a;strokeColor=#ffcd5a;strokeWidth=2;dashed=1;" parent="1" source="Vgzjhl4OV25yT5jgVJQd-5" target="Vgzjhl4OV25yT5jgVJQd-21" edge="1">
          <mxGeometry relative="1" as="geometry" />
        </mxCell>
        <mxCell id="Vgzjhl4OV25yT5jgVJQd-47" value="配置变更&lt;br&gt;broadcast" style="edgeLabel;html=1;align=center;verticalAlign=middle;resizable=0;points=[];" parent="Vgzjhl4OV25yT5jgVJQd-6" vertex="1" connectable="0">
          <mxGeometry x="-0.52" y="-2" relative="1" as="geometry">
            <mxPoint as="offset" />
          </mxGeometry>
        </mxCell>
        <mxCell id="Vgzjhl4OV25yT5jgVJQd-7" style="edgeStyle=orthogonalEdgeStyle;rounded=0;orthogonalLoop=1;jettySize=auto;html=1;exitX=1;exitY=0.5;exitDx=0;exitDy=0;entryX=0;entryY=0.5;entryDx=0;entryDy=0;fillColor=#ff8987;strokeColor=#ff8987;entryPerimeter=0;strokeWidth=2;" parent="1" source="Vgzjhl4OV25yT5jgVJQd-10" target="Vgzjhl4OV25yT5jgVJQd-41" edge="1">
          <mxGeometry relative="1" as="geometry">
            <mxPoint x="780" y="540" as="targetPoint" />
          </mxGeometry>
        </mxCell>
        <mxCell id="Vgzjhl4OV25yT5jgVJQd-8" style="edgeStyle=orthogonalEdgeStyle;rounded=0;orthogonalLoop=1;jettySize=auto;html=1;exitX=0.75;exitY=1;exitDx=0;exitDy=0;entryX=0.5;entryY=1;entryDx=0;entryDy=0;fillColor=#ffcccc;entryPerimeter=0;strokeWidth=2;strokeColor=#FF8987;" parent="1" source="Vgzjhl4OV25yT5jgVJQd-10" target="Vgzjhl4OV25yT5jgVJQd-42" edge="1">
          <mxGeometry relative="1" as="geometry">
            <mxPoint x="1095" y="570" as="targetPoint" />
          </mxGeometry>
        </mxCell>
        <mxCell id="FdiIMIpBdKavGemfurEI-8" style="edgeStyle=orthogonalEdgeStyle;rounded=0;orthogonalLoop=1;jettySize=auto;html=1;exitX=0.644;exitY=1.014;exitDx=0;exitDy=0;entryX=0.5;entryY=0;entryDx=0;entryDy=0;startArrow=none;startFill=0;strokeWidth=1;curved=1;exitPerimeter=0;dashed=1;strokeColor=#330000;" edge="1" parent="1" source="Vgzjhl4OV25yT5jgVJQd-10" target="FdiIMIpBdKavGemfurEI-7">
          <mxGeometry relative="1" as="geometry" />
        </mxCell>
        <mxCell id="FdiIMIpBdKavGemfurEI-13" value="数据上报" style="edgeLabel;html=1;align=center;verticalAlign=middle;resizable=0;points=[];" vertex="1" connectable="0" parent="FdiIMIpBdKavGemfurEI-8">
          <mxGeometry x="0.6817" y="-27" relative="1" as="geometry">
            <mxPoint x="27" y="33.4" as="offset" />
          </mxGeometry>
        </mxCell>
        <mxCell id="Vgzjhl4OV25yT5jgVJQd-10" value="ypp-gd-service" style="rounded=1;whiteSpace=wrap;html=1;fillColor=#cce5ff;strokeColor=#36393d;" parent="1" vertex="1">
          <mxGeometry x="620" y="500" width="110" height="70" as="geometry" />
        </mxCell>
        <mxCell id="Vgzjhl4OV25yT5jgVJQd-11" style="edgeStyle=orthogonalEdgeStyle;rounded=0;orthogonalLoop=1;jettySize=auto;html=1;exitX=0.5;exitY=1;exitDx=0;exitDy=0;fillColor=#ff8987;strokeColor=#ff8987;entryX=0;entryY=0.5;entryDx=0;entryDy=0;strokeWidth=2;" parent="1" source="Vgzjhl4OV25yT5jgVJQd-24" target="Vgzjhl4OV25yT5jgVJQd-14" edge="1">
          <mxGeometry relative="1" as="geometry">
            <mxPoint x="1275" y="860" as="sourcePoint" />
          </mxGeometry>
        </mxCell>
        <mxCell id="Vgzjhl4OV25yT5jgVJQd-12" style="edgeStyle=orthogonalEdgeStyle;rounded=0;orthogonalLoop=1;jettySize=auto;html=1;exitX=0.5;exitY=1;exitDx=0;exitDy=0;entryX=0;entryY=0.5;entryDx=0;entryDy=0;fillColor=#ff8987;strokeColor=#ff8987;strokeWidth=2;" parent="1" source="Vgzjhl4OV25yT5jgVJQd-24" target="Vgzjhl4OV25yT5jgVJQd-15" edge="1">
          <mxGeometry relative="1" as="geometry">
            <mxPoint x="1275" y="860" as="sourcePoint" />
          </mxGeometry>
        </mxCell>
        <mxCell id="Vgzjhl4OV25yT5jgVJQd-13" value="MySQL" style="shape=cylinder;whiteSpace=wrap;html=1;boundedLbl=1;backgroundOutline=1;" parent="1" vertex="1">
          <mxGeometry x="740" y="380" width="50" height="35" as="geometry" />
        </mxCell>
        <mxCell id="FdiIMIpBdKavGemfurEI-2" style="edgeStyle=orthogonalEdgeStyle;rounded=0;orthogonalLoop=1;jettySize=auto;html=1;exitX=1;exitY=0.5;exitDx=0;exitDy=0;entryX=0.5;entryY=1;entryDx=0;entryDy=0;strokeWidth=2;strokeColor=#FF8987;" edge="1" parent="1" source="Vgzjhl4OV25yT5jgVJQd-14" target="FdiIMIpBdKavGemfurEI-1">
          <mxGeometry relative="1" as="geometry" />
        </mxCell>
        <mxCell id="Vgzjhl4OV25yT5jgVJQd-15" value="TableStore" style="shape=cylinder;whiteSpace=wrap;html=1;boundedLbl=1;backgroundOutline=1;" parent="1" vertex="1">
          <mxGeometry x="1300" y="660" width="72.5" height="25" as="geometry" />
        </mxCell>
        <mxCell id="Vgzjhl4OV25yT5jgVJQd-16" style="edgeStyle=orthogonalEdgeStyle;rounded=0;orthogonalLoop=1;jettySize=auto;html=1;exitX=1;exitY=0.5;exitDx=0;exitDy=0;entryX=0;entryY=0.5;entryDx=0;entryDy=0;fillColor=#ff8987;strokeColor=#ff8987;exitPerimeter=0;strokeWidth=2;" parent="1" source="Vgzjhl4OV25yT5jgVJQd-41" target="Vgzjhl4OV25yT5jgVJQd-21" edge="1">
          <mxGeometry relative="1" as="geometry">
            <mxPoint x="850" y="540" as="sourcePoint" />
          </mxGeometry>
        </mxCell>
        <mxCell id="Vgzjhl4OV25yT5jgVJQd-17" style="edgeStyle=orthogonalEdgeStyle;rounded=0;orthogonalLoop=1;jettySize=auto;html=1;exitX=0.5;exitY=1;exitDx=0;exitDy=0;entryX=0.5;entryY=0;entryDx=0;entryDy=0;strokeWidth=2;startArrow=classic;startFill=1;strokeColor=#8DB9FF;" parent="1" source="Vgzjhl4OV25yT5jgVJQd-18" target="Vgzjhl4OV25yT5jgVJQd-5" edge="1">
          <mxGeometry relative="1" as="geometry" />
        </mxCell>
        <mxCell id="Vgzjhl4OV25yT5jgVJQd-18" value="web前端" style="rounded=1;whiteSpace=wrap;html=1;fillColor=#ffecf1;strokeColor=#ff8987;" parent="1" vertex="1">
          <mxGeometry x="918.75" y="280" width="87.5" height="30" as="geometry" />
        </mxCell>
        <mxCell id="Vgzjhl4OV25yT5jgVJQd-19" style="edgeStyle=orthogonalEdgeStyle;rounded=0;orthogonalLoop=1;jettySize=auto;html=1;exitX=1;exitY=0.5;exitDx=0;exitDy=0;entryX=0;entryY=0.5;entryDx=0;entryDy=0;fillColor=#ff8987;strokeColor=#ff8987;entryPerimeter=0;strokeWidth=2;" parent="1" source="Vgzjhl4OV25yT5jgVJQd-21" target="Vgzjhl4OV25yT5jgVJQd-42" edge="1">
          <mxGeometry relative="1" as="geometry">
            <mxPoint x="1070" y="540" as="targetPoint" />
            <mxPoint x="1035" y="540" as="sourcePoint" />
          </mxGeometry>
        </mxCell>
        <mxCell id="FdiIMIpBdKavGemfurEI-9" style="edgeStyle=orthogonalEdgeStyle;curved=1;rounded=0;orthogonalLoop=1;jettySize=auto;html=1;exitX=0.295;exitY=1.004;exitDx=0;exitDy=0;entryX=0.5;entryY=0;entryDx=0;entryDy=0;startArrow=none;startFill=0;strokeWidth=1;exitPerimeter=0;dashed=1;strokeColor=#330000;" edge="1" parent="1" source="Vgzjhl4OV25yT5jgVJQd-21" target="FdiIMIpBdKavGemfurEI-7">
          <mxGeometry relative="1" as="geometry" />
        </mxCell>
        <mxCell id="Vgzjhl4OV25yT5jgVJQd-21" value="spark streaming" style="rounded=1;whiteSpace=wrap;html=1;fillColor=#cce5ff;strokeColor=#36393d;" parent="1" vertex="1">
          <mxGeometry x="908" y="500" width="110" height="70" as="geometry" />
        </mxCell>
        <mxCell id="Vgzjhl4OV25yT5jgVJQd-22" style="edgeStyle=orthogonalEdgeStyle;rounded=0;orthogonalLoop=1;jettySize=auto;html=1;exitX=0.5;exitY=1;exitDx=0;exitDy=0;entryX=0;entryY=0.5;entryDx=0;entryDy=0;fillColor=#ff8987;strokeColor=#ff8987;entryPerimeter=0;strokeWidth=2;" parent="1" source="Vgzjhl4OV25yT5jgVJQd-24" target="Vgzjhl4OV25yT5jgVJQd-43" edge="1">
          <mxGeometry relative="1" as="geometry">
            <mxPoint x="1290" y="630" as="targetPoint" />
          </mxGeometry>
        </mxCell>
        <mxCell id="FdiIMIpBdKavGemfurEI-10" style="edgeStyle=orthogonalEdgeStyle;curved=1;rounded=0;orthogonalLoop=1;jettySize=auto;html=1;exitX=0.25;exitY=1;exitDx=0;exitDy=0;entryX=0.5;entryY=0;entryDx=0;entryDy=0;startArrow=none;startFill=0;strokeWidth=1;dashed=1;strokeColor=#330000;" edge="1" parent="1" source="Vgzjhl4OV25yT5jgVJQd-24" target="FdiIMIpBdKavGemfurEI-7">
          <mxGeometry relative="1" as="geometry" />
        </mxCell>
        <mxCell id="Vgzjhl4OV25yT5jgVJQd-24" value="profile-process-service" style="rounded=1;whiteSpace=wrap;html=1;fillColor=#cce5ff;strokeColor=#36393d;" parent="1" vertex="1">
          <mxGeometry x="1190" y="500" width="140" height="70" as="geometry" />
        </mxCell>
        <mxCell id="Vgzjhl4OV25yT5jgVJQd-25" style="edgeStyle=orthogonalEdgeStyle;rounded=0;orthogonalLoop=1;jettySize=auto;html=1;exitX=1;exitY=0.5;exitDx=0;exitDy=0;entryX=0;entryY=0.5;entryDx=0;entryDy=0;fillColor=#ff8987;strokeColor=#ff8987;exitPerimeter=0;strokeWidth=2;" parent="1" source="Vgzjhl4OV25yT5jgVJQd-42" target="Vgzjhl4OV25yT5jgVJQd-24" edge="1">
          <mxGeometry relative="1" as="geometry">
            <mxPoint x="1140" y="540" as="sourcePoint" />
          </mxGeometry>
        </mxCell>
        <mxCell id="Vgzjhl4OV25yT5jgVJQd-26" value="" style="endArrow=classic;html=1;fillColor=#ff8987;strokeColor=#ff8987;strokeWidth=2;" parent="1" edge="1">
          <mxGeometry width="50" height="50" relative="1" as="geometry">
            <mxPoint x="460" y="280" as="sourcePoint" />
            <mxPoint x="600" y="280" as="targetPoint" />
          </mxGeometry>
        </mxCell>
        <mxCell id="Vgzjhl4OV25yT5jgVJQd-27" value="&lt;font style=&quot;font-size: 10px&quot;&gt;表示数据流向&lt;/font&gt;" style="text;html=1;align=center;verticalAlign=middle;resizable=0;points=[];labelBackgroundColor=#ffffff;childText;" parent="Vgzjhl4OV25yT5jgVJQd-26" vertex="1" connectable="0">
          <mxGeometry x="0.0714" y="-1" relative="1" as="geometry">
            <mxPoint x="-5" y="-1" as="offset" />
          </mxGeometry>
        </mxCell>
        <mxCell id="Vgzjhl4OV25yT5jgVJQd-28" style="edgeStyle=orthogonalEdgeStyle;rounded=0;orthogonalLoop=1;jettySize=auto;html=1;exitX=1;exitY=0.5;exitDx=0;exitDy=0;exitPerimeter=0;entryX=0;entryY=0.5;entryDx=0;entryDy=0;fillColor=#ff8987;strokeColor=#ff8987;strokeWidth=2;" parent="1" source="Vgzjhl4OV25yT5jgVJQd-39" target="Vgzjhl4OV25yT5jgVJQd-10" edge="1">
          <mxGeometry relative="1" as="geometry">
            <mxPoint x="573" y="540" as="sourcePoint" />
          </mxGeometry>
        </mxCell>
        <mxCell id="Vgzjhl4OV25yT5jgVJQd-34" value="" style="endArrow=classic;html=1;fillColor=#8db9ff;strokeColor=#8db9ff;strokeWidth=2;" parent="1" edge="1">
          <mxGeometry width="50" height="50" relative="1" as="geometry">
            <mxPoint x="460" y="295" as="sourcePoint" />
            <mxPoint x="600" y="295" as="targetPoint" />
          </mxGeometry>
        </mxCell>
        <mxCell id="Vgzjhl4OV25yT5jgVJQd-35" value="表示配置变更" style="text;html=1;align=center;verticalAlign=middle;resizable=0;points=[];labelBackgroundColor=#ffffff;childText;" parent="Vgzjhl4OV25yT5jgVJQd-34" vertex="1" connectable="0">
          <mxGeometry x="0.0714" y="-1" relative="1" as="geometry">
            <mxPoint x="-5" y="-1" as="offset" />
          </mxGeometry>
        </mxCell>
        <mxCell id="Vgzjhl4OV25yT5jgVJQd-36" value="" style="endArrow=classic;html=1;fillColor=#ffcd5a;strokeColor=#ffcd5a;strokeWidth=2;" parent="1" edge="1">
          <mxGeometry width="50" height="50" relative="1" as="geometry">
            <mxPoint x="460" y="311" as="sourcePoint" />
            <mxPoint x="600" y="311" as="targetPoint" />
          </mxGeometry>
        </mxCell>
        <mxCell id="Vgzjhl4OV25yT5jgVJQd-37" value="表示配置变更" style="text;html=1;align=center;verticalAlign=middle;resizable=0;points=[];labelBackgroundColor=#ffffff;childText;" parent="Vgzjhl4OV25yT5jgVJQd-36" vertex="1" connectable="0">
          <mxGeometry x="0.0714" y="-1" relative="1" as="geometry">
            <mxPoint x="-5" y="-1" as="offset" />
          </mxGeometry>
        </mxCell>
        <mxCell id="Vgzjhl4OV25yT5jgVJQd-39" value="源数据，包括埋点、maserati及其他" style="strokeWidth=2;html=1;shape=mxgraph.flowchart.direct_data;whiteSpace=wrap;" parent="1" vertex="1">
          <mxGeometry x="480" y="512.5" width="110" height="45" as="geometry" />
        </mxCell>
        <mxCell id="Vgzjhl4OV25yT5jgVJQd-41" value="用户行为数据topic" style="strokeWidth=2;html=1;shape=mxgraph.flowchart.direct_data;whiteSpace=wrap;" parent="1" vertex="1">
          <mxGeometry x="767" y="515" width="110" height="40" as="geometry" />
        </mxCell>
        <mxCell id="Vgzjhl4OV25yT5jgVJQd-42" value="中间特征数据topic" style="strokeWidth=2;html=1;shape=mxgraph.flowchart.direct_data;whiteSpace=wrap;" parent="1" vertex="1">
          <mxGeometry x="1050" y="515" width="110" height="40" as="geometry" />
        </mxCell>
        <mxCell id="Vgzjhl4OV25yT5jgVJQd-43" value="特征数据topic" style="strokeWidth=2;html=1;shape=mxgraph.flowchart.direct_data;whiteSpace=wrap;" parent="1" vertex="1">
          <mxGeometry x="1292.5" y="590" width="87.5" height="30" as="geometry" />
        </mxCell>
        <mxCell id="FdiIMIpBdKavGemfurEI-4" style="edgeStyle=orthogonalEdgeStyle;rounded=0;orthogonalLoop=1;jettySize=auto;html=1;exitX=0.5;exitY=0;exitDx=0;exitDy=0;entryX=0.5;entryY=1;entryDx=0;entryDy=0;startArrow=classic;startFill=1;fillColor=#f8cecc;strokeColor=#FF8987;strokeWidth=2;" edge="1" parent="1" source="FdiIMIpBdKavGemfurEI-1" target="FdiIMIpBdKavGemfurEI-3">
          <mxGeometry relative="1" as="geometry" />
        </mxCell>
        <mxCell id="FdiIMIpBdKavGemfurEI-20" style="edgeStyle=orthogonalEdgeStyle;curved=1;rounded=0;orthogonalLoop=1;jettySize=auto;html=1;exitX=0.25;exitY=1;exitDx=0;exitDy=0;entryX=0.5;entryY=0;entryDx=0;entryDy=0;dashed=1;startArrow=none;startFill=0;strokeColor=#330000;strokeWidth=1;" edge="1" parent="1" source="FdiIMIpBdKavGemfurEI-1" target="FdiIMIpBdKavGemfurEI-7">
          <mxGeometry relative="1" as="geometry" />
        </mxCell>
        <mxCell id="FdiIMIpBdKavGemfurEI-1" value="profile-service" style="rounded=1;whiteSpace=wrap;html=1;fillColor=#cce5ff;strokeColor=#36393d;" vertex="1" parent="1">
          <mxGeometry x="1395" y="500" width="120" height="70" as="geometry" />
        </mxCell>
        <mxCell id="FdiIMIpBdKavGemfurEI-3" value="query" style="rounded=1;whiteSpace=wrap;html=1;fillColor=#ffecf1;strokeColor=#ff8987;" vertex="1" parent="1">
          <mxGeometry x="1418" y="280" width="74" height="30" as="geometry" />
        </mxCell>
        <mxCell id="FdiIMIpBdKavGemfurEI-7" value="CAT&lt;br&gt;(告警配置)" style="rounded=1;whiteSpace=wrap;html=1;fillColor=#ffecf1;strokeColor=#ff8987;" vertex="1" parent="1">
          <mxGeometry x="1006.25" y="730" width="94" height="50" as="geometry" />
        </mxCell>
        <mxCell id="FdiIMIpBdKavGemfurEI-16" value="" style="endArrow=classic;html=1;fillColor=#ffcd5a;strokeWidth=1;strokeColor=#330000;dashed=1;" edge="1" parent="1">
          <mxGeometry width="50" height="50" relative="1" as="geometry">
            <mxPoint x="460" y="327" as="sourcePoint" />
            <mxPoint x="600" y="327" as="targetPoint" />
          </mxGeometry>
        </mxCell>
        <mxCell id="FdiIMIpBdKavGemfurEI-17" value="数据上报" style="text;html=1;align=center;verticalAlign=middle;resizable=0;points=[];labelBackgroundColor=#ffffff;childText;" vertex="1" connectable="0" parent="FdiIMIpBdKavGemfurEI-16">
          <mxGeometry x="0.0714" y="-1" relative="1" as="geometry">
            <mxPoint x="-5" y="-1" as="offset" />
          </mxGeometry>
        </mxCell>
        <mxCell id="Vgzjhl4OV25yT5jgVJQd-14" value="HBase" style="shape=cylinder;whiteSpace=wrap;html=1;boundedLbl=1;backgroundOutline=1;" parent="1" vertex="1">
          <mxGeometry x="1305" y="630" width="62.5" height="25" as="geometry" />
        </mxCell>
        <mxCell id="FdiIMIpBdKavGemfurEI-19" style="edgeStyle=orthogonalEdgeStyle;curved=1;rounded=0;orthogonalLoop=1;jettySize=auto;html=1;exitX=0.886;exitY=1.073;exitDx=0;exitDy=0;entryX=0.5;entryY=0;entryDx=0;entryDy=0;startArrow=none;startFill=0;strokeWidth=1;dashed=1;strokeColor=#330000;exitPerimeter=0;" edge="1" parent="1" source="Vgzjhl4OV25yT5jgVJQd-5" target="FdiIMIpBdKavGemfurEI-7">
          <mxGeometry relative="1" as="geometry">
            <mxPoint x="1235" y="580" as="sourcePoint" />
            <mxPoint x="917" y="730" as="targetPoint" />
          </mxGeometry>
        </mxCell>
      </root>
    </mxGraphModel>
  </diagram>
</mxfile>
